<svg xmlns="http://www.w3.org/2000/svg" width="74.747" height="99.605" viewBox="0 0 74.747 99.605">
  <g id="Group_4" data-name="Group 4" transform="translate(-377.253 -517)">
    <path id="Path_60" data-name="Path 60" d="M377.253,547.085c3.555-2.679,7.722-3.762,11.988-4.572,2.465-.467,2.468-.448,3.726,2.092-1.894.513-3.793.946-5.633,1.555-1.249.414-3.149.645-3.144,2.16.006,1.721,2.028,1.826,3.332,2.214a57.062,57.062,0,0,0,11.927,1.935,170.094,170.094,0,0,0,37.378-.816,26.568,26.568,0,0,0,7.274-1.866c.617-.279,1.311-.6,1.362-1.4.054-.846-.711-1.109-1.288-1.428a23,23,0,0,0-4.724-1.653c-.556-.165-1.7.072-1.223-1.048.323-.756.22-2.162,1.777-1.874a33.512,33.512,0,0,1,10.177,3.2c1.945,1.061,2.214,2.555,1.351,4.411a15.357,15.357,0,0,1-4.283,5.283c-5.861,4.863-11.757,9.686-17.635,14.529-.47.387-.876.859-1.37,1.208-3.934,2.78-5.585,6.532-5.309,11.355.163,2.868-.072,2.881-2.793,2.246a22.96,22.96,0,0,0-11.741.142c-1.251.361-1.7.187-1.675-1.1a10.491,10.491,0,0,1-.108-1.362c.818-5.12-2-8.384-5.533-11.465-3.845-3.359-7.707-6.691-11.681-9.9-4.551-3.668-9.024-7.416-12.152-12.473Z" fill="#999"/>
    <path id="Path_61" data-name="Path 61" d="M411.489,616.2c-11.646-1.521-17.8-13.664-11.324-22.538,3.689-5.058,8.958-7.108,15.089-6.954a17.035,17.035,0,0,1,12.437,5.337c7.542,8.023,3.76,20.218-7.259,23.631-.977.3-2.1.172-2.93.932h-.915C414.926,615.988,413.158,616.718,411.489,616.2Z" fill="#999"/>
    <path id="Path_62" data-name="Path 62" d="M411.489,616.2c1.7.065,3.457-.452,5.1.408h-5.031A.624.624,0,0,0,411.489,616.2Z" fill="#999"/>
    <path id="Path_63" data-name="Path 63" d="M415.869,596.005c-.491,2.3-.572,4.018,2.329,4.6a4.176,4.176,0,0,1,3.464,4.487,4.933,4.933,0,0,1-3.632,4.73c-1.1.406-2.7.216-2.457,2.206.058.484-.6.644-1.059.61a.974.974,0,0,1-1.016-1.022c.079-1.151-.633-1.286-1.512-1.533a5.961,5.961,0,0,1-4.254-3.475c-.477-1.173-.306-2.143.883-2.67a1.928,1.928,0,0,1,2.712.9c.49.883.649,2.055,2.13,2.365,0-1.056-.056-2.023.015-2.981.081-1.1-.371-1.549-1.428-1.914-3-1.037-4.214-2.518-4.056-4.782.178-2.572,1.788-3.908,4.167-4.461.789-.184,1.412-.4,1.349-1.439a.987.987,0,0,1,1.157-1.095c.617.041,1.058.421.973,1.03-.172,1.245.7,1.282,1.507,1.491a5.325,5.325,0,0,1,3.441,2.443c.579.989.9,2.048-.306,2.791a1.881,1.881,0,0,1-2.893-.75C417.049,596.979,416.912,596.239,415.869,596.005Z" fill="#fdfefe"/>
    <path id="Path_64" data-name="Path 64" d="M415.743,607.516v-4.011c1.131.114,1.984.594,2.092,1.709C417.952,606.422,417.2,607.127,415.743,607.516Z" fill="#999"/>
    <path id="Path_65" data-name="Path 65" d="M413.4,595.812a8.065,8.065,0,0,1-.134,3.166C411.394,597.73,411.4,597.027,413.4,595.812Z" fill="#999"/>
    <path id="Path_66" data-name="Path 66" d="M416.818,517a17.059,17.059,0,0,1,2.309.749,6.268,6.268,0,0,1,3.764,5.179c.2,1.7-.014,3.409.8,5.1.511,1.065.044,2.478-.606,3.609-1.082,1.884-2.183,3.757-3.331,5.73a46.727,46.727,0,0,0,7.515,3.463c2.947,1.083,4.5,3.279,5.652,5.97.466,1.087.341,1.439-.976,1.433-9.478-.042-18.956,0-28.434.008-2.115,0-4.229,0-6.517,0,1.1-3.372,2.55-6.06,5.948-7.331,2.591-.969,5.068-2.242,7.792-3.467-1.453-1.578-1.9-3.508-3.024-5.118s-1.834-3.482-.527-5.475a2.812,2.812,0,0,0,.14-1.453c-.065-4.377.96-7.063,6.209-8.394Z" fill="#4d4d4d"/>
  </g>
</svg>
