<svg xmlns="http://www.w3.org/2000/svg" width="87.006" height="71.631" viewBox="0 0 87.006 71.631">
  <g id="Group_12" data-name="Group 12" transform="translate(-833.698 -385.7)">
    <path id="Path_617" data-name="Path 617" d="M877.263,385.761c12.578,0,25.157.081,37.733-.061a5.933,5.933,0,0,1,5.7,5.49c.014.32.011.641.011.961q0,22.713,0,45.425c0,4.149-2.417,6.57-6.544,6.57H840.253c-4.138,0-6.548-2.414-6.548-6.564q0-22.771-.007-45.545a6.345,6.345,0,0,1,2-4.959,4.738,4.738,0,0,1,3.354-1.333Q858.156,385.786,877.263,385.761Z" fill="#999"/>
    <path id="Path_618" data-name="Path 618" d="M877.252,457.326q-8.652,0-17.3,0a7.022,7.022,0,0,1-1.2-.055,2.528,2.528,0,0,1-2.285-2.385,2.327,2.327,0,0,1,2.242-2.378,37.766,37.766,0,0,1,4.795-.092c.779.019,1.028-.192,1-.99-.06-1.76.02-3.526-.037-5.286-.025-.757.221-.942.946-.938q11.836.06,23.672.052c.72,0,.866.257.85.907-.04,1.6.092,3.213-.046,4.8-.112,1.289.37,1.553,1.519,1.453,1.113-.1,2.242-.014,3.363-.025a3.859,3.859,0,0,1,1.747.345,2.294,2.294,0,0,1,.128,4.184,4.128,4.128,0,0,1-2.091.411Q885.9,457.319,877.252,457.326Z" fill="#999"/>
    <path id="Path_619" data-name="Path 619" d="M877.209,441.228h-37.12c-2.491,0-3.587-1.088-3.587-3.571q0-22.764,0-45.529c0-2.582,1.06-3.643,3.635-3.643q37.061,0,74.12,0c2.587,0,3.65,1.06,3.65,3.628q0,22.766,0,45.53c0,2.484-1.1,3.584-3.577,3.584Z" fill="#fefefe"/>
    <path id="Path_620" data-name="Path 620" d="M905.325,424.093q0-5.347,0-10.694c0-1.6.092-1.682,1.729-1.684,1.4,0,2.8.014,4.206,0,1.038-.014,1.521.463,1.52,1.507q-.014,11,0,21.991c0,1.044-.482,1.52-1.52,1.508-1.522-.018-3.045-.038-4.566.006-1.059.031-1.39-.457-1.382-1.454C905.343,431.544,905.325,427.819,905.325,424.093Z" fill="#ccc"/>
    <path id="Path_621" data-name="Path 621" d="M867.509,415.615a3.34,3.34,0,0,1-2.2,3.475,2.828,2.828,0,0,1-3.184-1.348,3.43,3.43,0,0,1,.517-4.2,2.667,2.667,0,0,1,3.6-.2.777.777,0,0,0,1.046.009c.815-.577,1.647-1.136,2.5-1.651,1.1-.664,2.066-1.238,1.932-2.886-.107-1.316,1.308-2.451,2.6-2.551a2.686,2.686,0,0,1,2.879,2.056,1.7,1.7,0,0,0,1.671,1.483,8.436,8.436,0,0,1,.928.242c1.084.306,2.033.705,2.98-.579.773-1.049,2.324-.919,3.46.006a.9.9,0,0,0,1.245.084c1.119-.7,2.253-1.376,3.408-2.013a1.08,1.08,0,0,0,.621-1.141,2.993,2.993,0,0,1,1.961-3.126,2.618,2.618,0,0,1,3.32,1.163c.283.406.568.344.922.23.685-.219,1.36-.485,2.058-.646a2.443,2.443,0,0,0,2.158-1.839,2.639,2.639,0,0,1,2.969-1.72,3.1,3.1,0,0,1,2.455,2.891,3.165,3.165,0,0,1-1.959,3.368,2.573,2.573,0,0,1-3.165-1.008,1.047,1.047,0,0,0-1.544-.5,11.92,11.92,0,0,1-1.485.469c-1.031.29-1.838.543-2.176,1.918-.479,1.952-2.683,2.475-4.349,1.254a.851.851,0,0,0-1.151-.071c-.806.519-1.633,1.013-2.482,1.457a2.576,2.576,0,0,0-1.781,2.447,2.685,2.685,0,0,1-2.6,2.528,2.788,2.788,0,0,1-2.956-2.284,1.387,1.387,0,0,0-1.3-1.255,8.881,8.881,0,0,1-1.5-.406,1.888,1.888,0,0,0-2.543.641,2.4,2.4,0,0,1-3.457.221.838.838,0,0,0-1.216-.02c-1.185.819-2.4,1.6-3.6,2.385C867.624,414.8,867.094,415.052,867.509,415.615Z" fill="#4d4d4d"/>
    <path id="Path_622" data-name="Path 622" d="M902.441,425.4c0,3.2-.027,6.407.015,9.61.014,1.091-.408,1.512-1.488,1.472-1.44-.053-2.883-.011-4.324-.014-1.407,0-1.649-.233-1.651-1.674-.007-5.605,0-11.211-.005-16.817-.006-4.672-.214-3.78,3.793-3.859.721-.014,1.445.042,2.162-.012,1.171-.089,1.53.45,1.514,1.564C902.411,418.916,902.441,422.16,902.441,425.4Z" fill="#ccc"/>
    <path id="Path_623" data-name="Path 623" d="M882.732,427.1c0,2.72-.03,5.441.014,8.16.018,1.092-.411,1.507-1.488,1.469-1.519-.052-3.04-.005-4.56-.015-1.295-.009-1.652-.342-1.654-1.6q-.012-8.16-.006-16.321c0-1.038.345-1.628,1.538-1.569,1.556.076,3.12.057,4.679.005,1.075-.036,1.509.372,1.491,1.466C882.7,421.5,882.732,424.3,882.732,427.1Z" fill="#ccc"/>
    <path id="Path_624" data-name="Path 624" d="M892.586,428.1c0,2.238.008,4.476,0,6.714-.007,1.428-.244,1.652-1.664,1.654-1.519,0-3.038-.011-4.556.005-.849.01-1.233-.373-1.232-1.224.009-4.716,0-9.431.006-14.147,0-.99.385-1.532,1.5-1.476,1.475.073,2.957.031,4.435.014a1.3,1.3,0,0,1,1.515,1.506C892.576,423.467,892.586,425.785,892.586,428.1Z" fill="#ccc"/>
    <path id="Path_625" data-name="Path 625" d="M872.877,430.105c0,1.721-.041,3.443.015,5.162a1.437,1.437,0,0,1-1.553,1.667c-1.558.065-3.124.077-4.68-.006a1.413,1.413,0,0,1-1.49-1.607q.067-5.222,0-10.444a1.411,1.411,0,0,1,1.495-1.6c1.556-.081,3.122-.07,4.68-.006a1.438,1.438,0,0,1,1.547,1.674C872.835,426.663,872.877,428.385,872.877,430.105Z" fill="#ccc"/>
    <g id="Group_11" data-name="Group 11">
      <path id="Path_626" data-name="Path 626" d="M862.784,391.523a1.342,1.342,0,0,1,.725,1.38c-.021,4.588-.018,9.175-.023,13.763-.264.105-.414-.043-.544-.241a5.677,5.677,0,0,1-.062-.992c.157-1.872.008-3.748.069-5.627-.257,1.463-1.693,2.653-.975,4.343a1.614,1.614,0,0,1-1.166.106,21.375,21.375,0,0,0-3.785-.136c-.315-.015-.633.009-.949-.014-.432-.031-.958-.007-1.075-.534-.148-.663.432-.733.877-.872a.792.792,0,0,0,.257-.225,2.03,2.03,0,0,0,.077-.328,1.722,1.722,0,0,1,.268-.955c.573-.128.512-.648.464-1-.039-.29-.47-.169-.732-.179a18.857,18.857,0,0,1-2.483-.069c-.35-.058-.9-.148-.326-.7a33.12,33.12,0,0,1,4.363-.129c.546-.024,1.1-.005,1.642.015a1.022,1.022,0,0,0,1.217-.966,3.6,3.6,0,0,1,1.176-1.545,4.68,4.68,0,0,0,.093-2.538c-.061-.085-.119-.171-.183-.253s-.154-.15-.234-.222c-.3-.171-.683-.228-.827-.61a1.512,1.512,0,0,1,.226-1.539A4.711,4.711,0,0,1,862.784,391.523Z" fill="#b3b3b3"/>
      <path id="Path_627" data-name="Path 627" d="M841.39,409.071c-.474-1.012-.146-2.083-.232-3.124.87-.353.686-1.46,1.387-1.934a.653.653,0,0,1,.235.257c.162.313.054.721.358.982a23.33,23.33,0,0,0,3.7.121,4.12,4.12,0,0,1,1.651.171c.517.639-.031.8-.459.992a20.861,20.861,0,0,1-4.439,1.351,2.828,2.828,0,0,0-1.022.3c-.283.194-.589-.017-1.061.045.506-.012.763.232,1.086.24,2.6.06,5.192.005,7.787.03a2.616,2.616,0,0,1,1.515.23c.29.386-.072.516-.278.707-3.05.249-6.1.059-9.156.106A2.046,2.046,0,0,1,841.39,409.071Z" fill="#b3b3b3"/>
      <path id="Path_628" data-name="Path 628" d="M841.153,396.093c0-1-.018-1.994,0-2.991.026-1.285.538-1.8,1.835-1.811,2.832-.017,5.664,0,8.5,0-.08.615-.6.528-.986.57a10.2,10.2,0,0,1-1.748.011,3.8,3.8,0,0,1-.465,0c-1.262-.187-2.3.048-2.753,1.425-.839.461-1.781.083-2.646.326a1.311,1.311,0,0,0-.294.212c-.4.736.128,1.664-.484,2.356A.8.8,0,0,1,841.153,396.093Z" fill="#b3b3b3"/>
      <path id="Path_629" data-name="Path 629" d="M842.6,404.03c-.082.166-.254.345-.231.495.151.965-.359,1.331-1.212,1.422q0-1.682,0-3.364a.647.647,0,0,1,.986.03c-.033-.517-.342-1.123.375-1.486.376.228.341.648.466.994a.588.588,0,0,0,.234.28c2.263.193,4.525.028,6.784.088a3.146,3.146,0,0,1,1.63.21c.125.849-.564.644-.968.681-.594.055-1.192.007-1.608.551a35.272,35.272,0,0,1-6.242.145Z" fill="#b3b3b3"/>
      <path id="Path_630" data-name="Path 630" d="M842.6,401.144c-.077.128-.236.269-.218.382.164,1.032-.342,1.254-1.224,1.057q0-1.322,0-2.644a1.857,1.857,0,0,0,.929-1.516c0-.3.07-.634.476-.7a.6.6,0,0,1,.232.272c.157.381.056.841.37,1.171,1.025.422,2.091.106,3.132.19a11.593,11.593,0,0,1,1.756.088.846.846,0,0,1,.346.221,1.537,1.537,0,0,1-1.752,1.543c-1.28.014-2.561.058-3.84-.027C842.734,401.173,842.666,401.158,842.6,401.144Z" fill="#b3b3b3"/>
      <path id="Path_631" data-name="Path 631" d="M842.593,397.775a.842.842,0,0,0-.234.864c.1.912-.313,1.321-1.205,1.3q0-1.923,0-3.846h.958c.209.07.389.2.6.28a1.814,1.814,0,0,0,.346.089c1.644.136,3.3-.181,4.933.187.03.024.073.043.088.075.238.505-.283.517-.483.738.346-.057.7-.127.435.435a3,3,0,0,1-1.47.214C845.238,397.964,843.868,398.435,842.593,397.775Z" fill="#b3b3b3"/>
      <path id="Path_632" data-name="Path 632" d="M848.6,391.526c.959-.122,1.958.255,2.885-.239,3.352,0,6.7-.008,10.055,0,.42,0,.888-.156,1.243.233l-1.925,0c-.8.581-1.722.309-2.6.348-.853.019-1.707.029-2.559-.006a6.573,6.573,0,0,1-1.078-.009A2.105,2.105,0,0,0,852,393.3a1.8,1.8,0,0,1-1.013.238,6.837,6.837,0,0,1-2.55-.212A1.57,1.57,0,0,1,848.6,391.526Z" fill="#b3b3b3"/>
      <path id="Path_633" data-name="Path 633" d="M841.39,409.071a12.053,12.053,0,0,0,3.778.229c2.182.028,4.366,0,6.549,0a.181.181,0,0,1,.289.014c-.27.554-.782.457-1.25.457-2.626,0-5.251,0-7.877.007C842.258,409.781,841.671,409.762,841.39,409.071Z" fill="#b3b3b3"/>
      <path id="Path_634" data-name="Path 634" d="M852.006,409.315l-.289-.014.244-.471a.994.994,0,0,1,.076-.45,2.264,2.264,0,0,1,.146-.291c.189-.3.387-.6.8-.609.134.01.265.024.4.037,2.63.039,5.257,0,7.884.021.507,0,1.047-.09,1.473.315-.3.406-.73.241-1.105.243-2.231.015-4.465.069-6.693-.017C853.715,408.032,852.671,408.154,852.006,409.315Z" fill="#b3b3b3"/>
      <path id="Path_635" data-name="Path 635" d="M862.739,407.853c-2.934,0-5.868.012-8.8.009-.343,0-.725.109-1-.224.409-.434.951-.336,1.455-.341,1.665-.016,3.33,0,4.995-.01,1.138.134,2.332-.3,3.419.342A.764.764,0,0,1,862.739,407.853Z" fill="#b3b3b3"/>
      <path id="Path_636" data-name="Path 636" d="M862.807,407.629l-3.388-.009c-.031-.509.421-.492.71-.653a18.545,18.545,0,0,1,1.953-.178c.045-.021.092-.039.137-.06a2.563,2.563,0,0,1,.25-.158.984.984,0,0,1,.556-.142l.461.237C863.617,407.239,863.222,407.441,862.807,407.629Z" fill="#b3b3b3"/>
      <path id="Path_637" data-name="Path 637" d="M861.881,393.685a.425.425,0,0,0,.149.033,5.15,5.15,0,0,1,.114,2.34c-.044.794-.741.829-1.345.839-1.707.03-3.415.012-5.122.012a5.339,5.339,0,0,1-1.163-.1,3.1,3.1,0,0,0-1.179-.135c-2.984.067-5.964-.136-8.948-.107-1.782.017-2-.229-1.883-1.984a1.605,1.605,0,0,1,.24-.908c1.2-.467,2.481-.09,3.706-.329,3.2.23,6.4-.031,9.595,0,1.647.053,3.3-.1,4.943.094A1.714,1.714,0,0,1,861.881,393.685Z" fill="#b3b3b3"/>
      <path id="Path_638" data-name="Path 638" d="M862.057,404.036c-.958-.271-1.039-.735-.553-1.605.611-1.1,1.021-2.3,1.634-3.451,0,2.25.415,4.492-.115,6.727.033.534-.37.726-.741.943a30.994,30.994,0,0,1-6.835-.084c-.292-.63.237-.612.571-.664a3.1,3.1,0,0,0,1.483-.368,5.49,5.49,0,0,1,2.254-.143C860.869,405.468,861.823,405.4,862.057,404.036Z" fill="#b3b3b3"/>
      <path id="Path_639" data-name="Path 639" d="M862.057,404.036c.022,1.676.022,1.673-1.615,1.677-.985,0-1.97.012-2.956.019a29.124,29.124,0,0,1-5.958.345c-.97-.173-2.016.3-2.93-.346-1.632-.008-3.263-.006-4.894-.03-.377,0-.808.153-1.109-.237a2.166,2.166,0,0,1,1.593-.333c2.866-.01,5.733,0,8.6-.007,2.393.013,4.788.017,7.183-.008.37,0,.9.264,1.073-.357a4.953,4.953,0,0,0-2.12-.148c-2.42-.023-4.839-.013-7.26-.005-2.493-.008-4.985.005-7.477-.007a2.16,2.16,0,0,1-1.584-.329v-.24l-.009,0a26.713,26.713,0,0,1,4.118-.115,14.131,14.131,0,0,0,3.285-.224c1.464-.011,2.928.013,4.393-.015,1.627.443,3.289.146,4.932.236a4.806,4.806,0,0,1,1.522.093Z" fill="#b3b3b3"/>
      <path id="Path_640" data-name="Path 640" d="M848.361,399.7h-.24a.269.269,0,0,1,.1-.375,16.972,16.972,0,0,1,4.365-.163.858.858,0,0,1,.576.306c.977.493,2.019.127,3.027.225.429.042.865.007,1.33.007.082.728-.65,1.123-.579,1.82.014.143-.144-.4-.414-.374l-.186.033a8.82,8.82,0,0,0-2.265.247,24.08,24.08,0,0,1-5.092-.12c.031-.62.045-.626.741-.72s1.429.143,2.225-.367a3.951,3.951,0,0,0-1.65-.181C849.646,399.974,848.941,400.2,848.361,399.7Z" fill="#b3b3b3"/>
      <path id="Path_641" data-name="Path 641" d="M860.842,404h-6.487a35.827,35.827,0,0,0-4.234-.1c-.347-.037-.712.094-1.039-.117-.051-.6.283-.708.806-.736.613-.033,1.275.245,1.837-.223a7.4,7.4,0,0,1,4.808,0c-.027.029-.056.056-.081.087-.341.4-1.336-.157-1.231.513.11.708.995.285,1.533.348C858.11,403.929,859.5,403.529,860.842,404Z" fill="#b3b3b3"/>
      <path id="Path_642" data-name="Path 642" d="M846.681,397.777l1.438,0c.727-.587,1.581-.325,2.388-.347.472-.012.945.015,1.417-.009,1.181-.064,2.362.046,3.542.01a20.538,20.538,0,0,1,3.66.271c-.406-.183-.982.206-1.218-.348-.124-.29.117-.515.4-.639a21.779,21.779,0,0,1,3.753.1l-1.2,1.2c-.976.638-2.061.289-3.1.348-1.045.023-2.089.037-3.134.01-1.111,0-2.222.026-3.333.007-1.159-.041-2.319.028-3.479-.01a2.319,2.319,0,0,1-1.042-.228A.258.258,0,0,1,846.681,397.777Z" fill="#b3b3b3"/>
      <path id="Path_643" data-name="Path 643" d="M857.735,398.017h3.122c.233,1.222-.314,1.621-1.477,1.451a9.948,9.948,0,0,0-1.4-.017c-.218-.225-.564-.014-.783-.232A1.289,1.289,0,0,1,857.735,398.017Z" fill="#b3b3b3"/>
      <path id="Path_644" data-name="Path 644" d="M858.216,391.526h2.643v1.682a3.6,3.6,0,0,1-2.65.049A1.333,1.333,0,0,1,858.216,391.526Z" fill="#b3b3b3"/>
      <path id="Path_645" data-name="Path 645" d="M856.525,402.339c0,.079.005.157.005.236-2.085.272-4.179.052-6.265.123-.1-.494-.11-.521.276-.605a11.9,11.9,0,0,1,2.265-.091c.608-.016,1.212-.024,1.535-.679a1.413,1.413,0,0,1,.777-.179C856.087,400.954,856.5,401.42,856.525,402.339Z" fill="#b3b3b3"/>
      <path id="Path_646" data-name="Path 646" d="M850.051,402.573l6.479,0,0,.248h-4.808c-2.63,0-5.261,0-7.891-.012-.416,0-.887.168-1.233-.24a1.16,1.16,0,0,1,.757-.3q2.97-.069,5.942,0A1,1,0,0,1,850.051,402.573Z" fill="#b3b3b3"/>
      <path id="Path_647" data-name="Path 647" d="M862.061,396.814l-3.844,0a2.92,2.92,0,0,1-2.527.144.266.266,0,0,1-.121-.366c1.742-.016,3.486-.08,5.226-.028.915.028,1.334-.208,1.217-1.187a11.961,11.961,0,0,1,.018-1.661A3.988,3.988,0,0,1,862.061,396.814Z" fill="#b3b3b3"/>
      <path id="Path_648" data-name="Path 648" d="M861.881,393.685l-5.837-.026a.272.272,0,0,1,.133-.362,3.069,3.069,0,0,1,2.137.013,30.427,30.427,0,0,1,3.508.126Z" fill="#b3b3b3"/>
      <path id="Path_649" data-name="Path 649" d="M857.254,399.217c.263.008.545-.041.722.233l-4.811.015-.477-.015a.257.257,0,0,1,.1-.363,2.958,2.958,0,0,1,1.476-.209C855.262,398.952,856.317,398.571,857.254,399.217Z" fill="#b3b3b3"/>
      <path id="Path_650" data-name="Path 650" d="M861.822,393.436l-3.608-.027-.078-.1.08-.1h2.644C861.19,393.241,861.563,393.1,861.822,393.436Z" fill="#b3b3b3"/>
      <path id="Path_651" data-name="Path 651" d="M856.525,402.339c-.247-.666-.592-1.185-1.434-.96a.213.213,0,0,1,.073-.331,2.785,2.785,0,0,1,1.368.1h0Q856.526,401.741,856.525,402.339Z" fill="#b3b3b3"/>
      <path id="Path_652" data-name="Path 652" d="M862.542,406.425l.481-.718c.383.24.06.481,0,.722a.5.5,0,0,1-.479.241c-.063-.053-.085-.107-.065-.162S862.521,406.425,862.542,406.425Z" fill="#b3b3b3"/>
      <path id="Path_653" data-name="Path 653" d="M848.6,405.731l2.878,0c-.261,1.084-1.4,1.142-2.084,1.722a6.264,6.264,0,0,1-1.778.918c-1.191.146-2.387.041-3.58.078-.573-.054-1.194.135-1.682-.338.827-.831,1.992-.608,2.978-.949A10.329,10.329,0,0,0,848.6,405.731Z" fill="#b3b3b3"/>
      <path id="Path_654" data-name="Path 654" d="M842.6,404.27l9.129.006a.267.267,0,0,1-.113.367,7.69,7.69,0,0,1-2.748.2c-1.647.021-3.3,0-4.946.011,1.58.051,3.161-.007,4.743.026,1.384.074,2.783-.224,4.148.2a.275.275,0,0,1,.116.38l-10.334,0Z" fill="#b3b3b3"/>
      <path id="Path_655" data-name="Path 655" d="M842.352,408.109h1.682a8.745,8.745,0,0,0,3.186.085c1.384-.166,2.772-.09,4.146-.268a2.146,2.146,0,0,1,.591-.143c.328.079.456.249.249.565h0c-.115.165-.241.335-.462.333-3.211-.021-6.424.157-9.632-.091a1.033,1.033,0,0,1-.567-.556C841.842,407.784,842.08,408.2,842.352,408.109Z" fill="#b3b3b3"/>
      <path id="Path_656" data-name="Path 656" d="M842.112,408.592q4.353,0,8.707,0a2.477,2.477,0,0,0,1.387-.242.5.5,0,0,1-.245.48c-2.87,0-5.739.007-8.609-.006C842.934,408.822,842.465,408.983,842.112,408.592Z" fill="#b3b3b3"/>
      <path id="Path_657" data-name="Path 657" d="M848.6,391.526a3.077,3.077,0,0,1-.239,1.68c-.216.249-.512.225-.8.238-.7-.087-1.434.221-2.087-.237C845.922,391.524,845.922,391.524,848.6,391.526Z" fill="#b3b3b3"/>
      <path id="Path_658" data-name="Path 658" d="M845.477,393.207l2.162,0a.213.213,0,0,1-.073.331c-.4.047-.8.015-1.2.024-1.145,0-2.289,0-3.434,0a.315.315,0,0,1-.332-.174C843.538,393.01,844.52,393.3,845.477,393.207Z" fill="#b3b3b3"/>
      <path id="Path_659" data-name="Path 659" d="M842.631,396.624l-.26-.052a7.472,7.472,0,0,1,0-3.123.48.48,0,0,0,.225-.061l0,.1a.474.474,0,0,1,.107.349c.011.813-.018,1.627.016,2.44A.437.437,0,0,1,842.631,396.624Z" fill="#b3b3b3"/>
      <path id="Path_660" data-name="Path 660" d="M842.373,393.449q0,1.561,0,3.123a.477.477,0,0,1-.26-.479C842.249,395.217,841.816,394.284,842.373,393.449Z" fill="#b3b3b3"/>
      <path id="Path_661" data-name="Path 661" d="M855.093,401.151c0,.076,0,.152,0,.228h-.721c-1.568.7-3.191.35-4.8.236a2.161,2.161,0,0,0-.86-.067c.462-.114.854.006.9.508.046.473-.4.4-.7.395-2.1-.056-4.215.145-6.316-.11q0-.6,0-1.2h0a23.561,23.561,0,0,1,4.339-.1c.632,0,1.306-.515,1.911.088h5.527A.589.589,0,0,1,855.093,401.151Z" fill="#b3b3b3"/>
      <path id="Path_662" data-name="Path 662" d="M842.6,402.342c1.917,0,3.835.012,5.752-.012.364,0,.977.235,1.046-.238.092-.636-.652-.341-1.227-.712h6.2c.293.817-.179.923-.835.972-1.161.086-2.351-.273-3.485.221H842.6A1.187,1.187,0,0,1,842.6,402.342Z" fill="#b3b3b3"/>
      <path id="Path_663" data-name="Path 663" d="M849.082,403.783h.961c.079.049.1.1.078.145s-.054.071-.081.071l-7.448.027c.728-.488,1.541-.2,2.311-.229C846.295,403.746,847.689,403.783,849.082,403.783Z" fill="#b3b3b3"/>
      <path id="Path_664" data-name="Path 664" d="M852.687,399.217c0,.078,0,.155,0,.233l-4.569.014a26.364,26.364,0,0,1-5.525-.016v-1.43a15.025,15.025,0,0,1,4.08-.013l.965.018c.133.308-.12.519-.247.851,1.063.062,2.08.009,3.1.007C851.234,398.929,852.024,398.66,852.687,399.217Z" fill="#b3b3b3"/>
      <path id="Path_665" data-name="Path 665" d="M848.844,401.132l-6.25.013a6.938,6.938,0,0,1,3.356-.212,2.3,2.3,0,0,0,2.411-1.236h4.145c-.081.96-.531,1.23-1.355,1.225C850.386,400.918,849.574,400.665,848.844,401.132Z" fill="#b3b3b3"/>
      <path id="Path_666" data-name="Path 666" d="M842.594,399.448l5.525.016c0,.078,0,.156,0,.233-1.472,0-2.944.009-4.415-.006C843.326,399.688,842.9,399.828,842.594,399.448Z" fill="#b3b3b3"/>
      <path id="Path_667" data-name="Path 667" d="M846.674,398.005l-4.08.013v-.243l4.088,0C846.679,397.853,846.677,397.929,846.674,398.005Z" fill="#b3b3b3"/>
      <path id="Path_668" data-name="Path 668" d="M851.962,397.771l-3.843,0c-.742-.321-.463-.64,0-.959.709-.458,1.5-.145,2.248-.24a3.687,3.687,0,0,1,.949.066C851.5,397.034,851.854,397.333,851.962,397.771Z" fill="#b3b3b3"/>
      <path id="Path_669" data-name="Path 669" d="M850.523,396.812l-2.4,0c-1.829-.118-3.673.239-5.49-.19v-.1c2.581-.156,5.163-.047,7.745-.058A.215.215,0,0,1,850.523,396.812Z" fill="#b3b3b3"/>
      <path id="Path_670" data-name="Path 670" d="M851.967,393.206c.264-1.68.264-1.68,1.945-1.681h1.66a1.545,1.545,0,0,1-.213,1.761.843.843,0,0,1-.4.142C853.961,393.346,852.932,393.7,851.967,393.206Z" fill="#b3b3b3"/>
      <path id="Path_671" data-name="Path 671" d="M855.332,393.206l.24-1.68h2.644v1.683A7.036,7.036,0,0,1,855.332,393.206Z" fill="#b3b3b3"/>
      <path id="Path_672" data-name="Path 672" d="M851.967,393.206l3.123,0a.213.213,0,0,1-.113.337q-1.929.045-3.859,0a.214.214,0,0,1-.114-.337Z" fill="#b3b3b3"/>
      <path id="Path_673" data-name="Path 673" d="M851,393.209c0,.066,0,.133,0,.2a7.421,7.421,0,0,1-3.364,0v-.2l.723,0Z" fill="#b3b3b3"/>
      <path id="Path_674" data-name="Path 674" d="M852.206,408.349a.491.491,0,0,0-.238-.477c.253-1.76,1.5-2.3,3.365-1.446h7.209l0,.245-.005,0a9.927,9.927,0,0,1-4.243.26c-1.518-.194-3.012-.012-4.038-.128.811-.012,2.1-.029,3.382.018a.274.274,0,0,1,.12.362c-1.1.428-2.24.113-3.358.208-.575.048-1.183-.13-1.71.248Z" fill="#b3b3b3"/>
      <path id="Path_675" data-name="Path 675" d="M852.694,407.635c.216-.512.663-.488,1.108-.487,1.311,0,2.622,0,3.933,0a2.786,2.786,0,0,1,2.4,0l-.72.471-6.481.017Z" fill="#b3b3b3"/>
      <path id="Path_676" data-name="Path 676" d="M857.735,406.909h-4.523v-.242h9.329q0,.119-.006.237A20.228,20.228,0,0,1,857.735,406.909Z" fill="#b3b3b3"/>
      <path id="Path_677" data-name="Path 677" d="M857.735,406.909l4.8-.005c-.756.5-1.6.132-2.4.246l-2.4,0Z" fill="#b3b3b3"/>
      <path id="Path_678" data-name="Path 678" d="M850.522,396.594l-7.891-.065q0-1.42,0-2.84c.074-.1.143-.093.206.011-.009,2.632-.009,2.632,2.615,2.632s5.256-.005,7.884.006a2.121,2.121,0,0,1,1.28.155c-.775.728-1.723.4-2.59.351A6.1,6.1,0,0,1,850.522,396.594Z" fill="#b3b3b3"/>
      <path id="Path_679" data-name="Path 679" d="M847.639,393.408h7.45c.33-.08.662-.19.962.081,0,.057,0,.114-.007.17l-9.6.021c-.08-.041-.107-.082-.083-.126s.051-.066.077-.066Z" fill="#b3b3b3"/>
      <path id="Path_680" data-name="Path 680" d="M850.522,396.594l4.092-.1.955.1c0,.072,0,.144,0,.217a.851.851,0,0,1-.37.249c-1.246.047-2.516.435-3.715-.245l-.963,0C850.524,396.739,850.523,396.667,850.522,396.594Z" fill="#b3b3b3"/>
      <path id="Path_681" data-name="Path 681" d="M846.437,393.488l.006.192-3.608.02a1.414,1.414,0,0,0-.206-.011.527.527,0,0,1-.028-.2Z" fill="#b3b3b3"/>
      <path id="Path_682" data-name="Path 682" d="M855.333,406.426a4.364,4.364,0,0,1-.705,0,2.133,2.133,0,0,0-2.66,1.45l-.241.239a13.012,13.012,0,0,1-3.846,0,20.576,20.576,0,0,1,3.073-1.924,1.138,1.138,0,0,0,.522-.455l6.011,0c-.093.6-.564.412-.928.456C856.145,406.238,855.681,406.032,855.333,406.426Z" fill="#b3b3b3"/>
      <path id="Path_683" data-name="Path 683" d="M851.726,404.5q0-.114,0-.228,4.55-.009,9.1-.014c.343,0,.731-.114.994.242a1.7,1.7,0,0,1-.388.244c-2.651.249-5.307.058-7.961.1C852.879,404.8,852.233,405,851.726,404.5Z" fill="#b3b3b3"/>
      <path id="Path_684" data-name="Path 684" d="M861.579,404.505h.245c.138.835-.3.992-1.031.982-2.621-.035-5.243-.021-7.864-.025,0-.079,0-.157,0-.235a.852.852,0,0,1,.358-.248c2.284-.238,4.576-.041,6.864-.111C860.65,404.852,861.194,404.987,861.579,404.505Z" fill="#b3b3b3"/>
      <path id="Path_685" data-name="Path 685" d="M850.04,404q0-.108,0-.216c1.435.129,2.9-.277,4.313.219Z" fill="#b3b3b3"/>
      <path id="Path_686" data-name="Path 686" d="M855.093,401.151l-.722-.02a2.191,2.191,0,0,1,2.161.012Z" fill="#b3b3b3"/>
      <path id="Path_687" data-name="Path 687" d="M852.687,399.217h-2.4c-.122-.753.419-.973.959-1.194l3.367,0a.934.934,0,0,1-.48,1.2Z" fill="#b3b3b3"/>
      <path id="Path_688" data-name="Path 688" d="M851.243,398.022l-.959,1.194H846.9c-.039-.613.609-.742.737-1.193Z" fill="#b3b3b3"/>
      <path id="Path_689" data-name="Path 689" d="M854.13,399.216l.48-1.2,3.125,0-.481,1.2Z" fill="#b3b3b3"/>
      <path id="Path_690" data-name="Path 690" d="M851.486,396.815h3.845c-.27.406.269.611.238.958h-3.606c-.254-.4-.753-.1-1.063-.374C850.832,396.942,851.4,397.118,851.486,396.815Z" fill="#b3b3b3"/>
      <path id="Path_691" data-name="Path 691" d="M855.569,397.772c-.25-.4-.744-.106-1.06-.38.013-.558.7-.18.822-.578l.24,0,2.646.005c-.4,1.372.876.355,1.175.956Z" fill="#b3b3b3"/>
      <path id="Path_692" data-name="Path 692" d="M856.051,393.489l-.962-.081c0-.066,0-.133,0-.2l.242,0,2.883,0c0,.066,0,.133,0,.2Z" fill="#b3b3b3"/>
      <path id="Path_693" data-name="Path 693" d="M847.881,408.108l3.846,0c-.311.362-.734.231-1.114.233q-2.733.018-5.465,0c-.381,0-.8.129-1.114-.234Z" fill="#b3b3b3"/>
      <path id="Path_694" data-name="Path 694" d="M848.6,405.225c-1.667,0-3.334,0-5-.005-.261,0-.639.077-.675-.3-.049-.5.388-.406.677-.408,1.746-.011,3.493-.006,5.239-.006C849.117,404.864,848.859,405.044,848.6,405.225Z" fill="#b3b3b3"/>
      <path id="Path_695" data-name="Path 695" d="M848.6,405.225l.24-.72h4.567c.18.327-.051.517-.24.721H848.6Z" fill="#b3b3b3"/>
      <path id="Path_696" data-name="Path 696" d="M853.168,405.225l.24-.721h8.171c.06.828-.529.719-1.04.719Z" fill="#b3b3b3"/>
    </g>
  </g>
</svg>
