<svg xmlns="http://www.w3.org/2000/svg" width="78.102" height="82.984" viewBox="0 0 78.102 82.984">
  <g id="Group_7" data-name="Group 7" transform="translate(-144.406 -529.542)">
    <path id="Path_71" data-name="Path 71" d="M207.434,532.423c.19-.056.409,0,.574-.149l2-.316c1.441-.313,2.923-.409,4.344-.825a8.66,8.66,0,0,0,1.847-.276l1.587-.261a9.74,9.74,0,0,0,1.994-.183l.334-.276.264.046a4.927,4.927,0,0,0,1.116-.139c.346-.015.659-.007.418.492-.1.218-.021.468-.055.7l-.079.556c-.034.062-.065.125-.1.189-.025.533-.155,1.054-.166,1.588-.066.285-.1.576-.179.859a4.326,4.326,0,0,0-.31,2.025c-.06.483-.206.951-.248,1.437a11.218,11.218,0,0,1-.51,2.32,8.17,8.17,0,0,0-.533,2.254.7.7,0,0,1-.034.212,2.89,2.89,0,0,0-.164,1.36,2.087,2.087,0,0,1-.056.431,4.206,4.206,0,0,0-.123.739c-.078.308-.1.625-.163.937a2.181,2.181,0,0,0-.094.507,1.5,1.5,0,0,1-.078.41c-.193.433-.481.406-.786.139-.249-.218-.422-.511-.674-.729-.319-.285-.625-.585-.924-.892a15.718,15.718,0,0,0-1.32-1.287.514.514,0,0,0-.811-.007c-.26.241-.511.493-.771.735a16.282,16.282,0,0,0-1.334,1.408q-.807.792-1.6,1.6c-.466.435-.971.828-1.4,1.3-.49.47-1,.919-1.463,1.418s-1,.913-1.449,1.423c-.513.445-.927.987-1.424,1.447s-.961.97-1.456,1.442c-.522.339-.815.909-1.292,1.294a12.721,12.721,0,0,0-1.714,1.583,12.422,12.422,0,0,0-1.292,1.283c-.62.531-1.153,1.148-1.727,1.725a6.733,6.733,0,0,0-1.119,1.041c-.518.619-1.277.988-1.738,1.667a8.993,8.993,0,0,0-1.142,1.039,18.8,18.8,0,0,1-1.742,1.861c-.388.337-.791.655-1.157,1.017-.591.6-1.211,1.17-1.816,1.753a9.982,9.982,0,0,1-.9.862c-.671.795-1.429,1.507-2.157,2.248-.262.245-.507.507-.768.754-.646.721-1.48,1.24-2.107,1.981-.256.214-.441.527-.809.586-.3-.026-.468-.255-.669-.433-.722-.751-1.545-1.4-2.278-2.136-.246-.26-.5-.512-.759-.759-.667-.7-1.45-1.267-2.113-1.968-.289-.306-.588-.6-.893-.894a22.213,22.213,0,0,1-1.993-1.85c-.306-.329-.647-.626-.921-.985-.129-.144-.255-.229-.376.011a12.537,12.537,0,0,1-1.422,1.545,13.329,13.329,0,0,0-1.292,1.279c-.548.5-1.055,1.045-1.568,1.582-.444.426-.875.865-1.306,1.3-.533.519-1.057,1.049-1.579,1.58a16.322,16.322,0,0,0-1.29,1.287c-.532.522-1.056,1.051-1.579,1.581-.441.425-.871.862-1.3,1.3-.533.518-1.054,1.047-1.576,1.575-.441.426-.87.862-1.3,1.3-.532.518-1.054,1.047-1.576,1.576-.441.427-.873.864-1.3,1.3-.54.529-1.076,1.063-1.6,1.608-.15.152-.3.3-.457.447a.694.694,0,0,1-1.116-.013c-.423-.488-.949-.854-1.411-1.293-.25-.269-.519-.52-.76-.8-.689-.717-1.428-1.383-2.124-2.092q-.375-.4-.772-.77c-1.317-1.321-1.375-1.2.019-2.571.135-.133.266-.27.4-.4.119-.116.239-.232.356-.352.847-.839,1.684-1.689,2.53-2.53.118-.115.235-.23.35-.349.844-.839,1.681-1.686,2.525-2.525.117-.116.235-.231.349-.349.845-.839,1.681-1.686,2.525-2.525.117-.116.235-.231.349-.349.845-.839,1.681-1.686,2.525-2.526.118-.115.235-.23.35-.349.847-.84,1.683-1.69,2.531-2.53.071-.07.146-.134.223-.2.9-.875,1.738-1.8,2.641-2.669.118-.116.236-.231.35-.349.846-.839,1.683-1.687,2.528-2.527.117-.116.235-.231.349-.35.847-.841,1.687-1.689,2.531-2.533.119-.118.238-.236.354-.357.4-.4.8-.807,1.205-1.206.667-.654.774-.658,1.467-.066q.164.138.314.288a13.408,13.408,0,0,0,1.382,1.314c.554.423.994.966,1.505,1.435a8.39,8.39,0,0,0,1.568,1.431c.418.448.885.848,1.277,1.32.071.1.128.217.188.326a1.012,1.012,0,0,0,.375.385c.221.172.409.379.612.571a2.468,2.468,0,0,0,.708.577,2.352,2.352,0,0,1,.735.734c.132.21.255.229.369-.015a1.93,1.93,0,0,1,.737-.744.891.891,0,0,0,.428-.318,1.011,1.011,0,0,1,.138-.131,2.5,2.5,0,0,0,.7-.693,7.247,7.247,0,0,1,.772-.853c.392-.38.776-.768,1.157-1.16.592-.559,1.131-1.174,1.749-1.708a10.906,10.906,0,0,0,1.1-1.04c.573-.475,1.065-1.032,1.594-1.552a17.025,17.025,0,0,1,1.416-1.322,11.1,11.1,0,0,1,1.6-1.545c.489-.472.965-.957,1.442-1.441.438-.474,1.01-.8,1.434-1.286a1.788,1.788,0,0,1,.472-.342,1.331,1.331,0,0,0,.634-.542.99.99,0,0,1,.129-.138.929.929,0,0,0,.331-.44c.291-.524.826-.816,1.2-1.264a21.84,21.84,0,0,0,1.832-1.729c.449-.313.742-.789,1.17-1.124a1.064,1.064,0,0,1,.167-.088.576.576,0,0,0,.369-.377c.257-.517.789-.752,1.168-1.144.4-.378.782-.771,1.166-1.163q.873-.856,1.727-1.731c1.179-1.076,1.179-1.075.029-2.227-.2-.2-.4-.4-.6-.6-.4-.476-.961-.813-1.208-1.418-.041-.057-.083-.112-.122-.17-.122-.182-.454-.3-.3-.564.128-.223.413-.144.643-.116.284-.114.612.006.885-.165A2.873,2.873,0,0,0,207.434,532.423Z" fill="#999" stroke="#999" stroke-miterlimit="10" stroke-width="1"/>
    <path id="Path_72" data-name="Path 72" d="M144.919,612.025q0-9.831,0-19.663c0-.251-.092-.532.139-.745a1.634,1.634,0,0,1,.775-.064c3.129-.005,6.258-.021,9.387,0,3.268.025,6.531-.243,9.8-.137a1.8,1.8,0,0,1,1.044.158,1.3,1.3,0,0,1,.177.894c0,3.564.109,7.131-.031,10.689-.111,2.795-.034,5.586-.1,8.378,0,.164.038.337-.075.485Z" fill="#999" stroke="#999" stroke-miterlimit="10" stroke-width="1"/>
    <path id="Path_73" data-name="Path 73" d="M172.654,612.026q0-14.758-.019-29.517c0-.7.232-.819.859-.817q9.66.03,19.319.007c.275,0,.579.106.821-.132l.281,0a1.218,1.218,0,0,1,.072.7q.006,14.526,0,29.052a1.2,1.2,0,0,1-.073.7Z" fill="#999" stroke="#999" stroke-miterlimit="10" stroke-width="1"/>
    <path id="Path_74" data-name="Path 74" d="M221.509,612.023H200.247a22.04,22.04,0,0,1-.061-3.35c-.019-5.309.092-10.621-.046-15.926-.086-3.345-.063-6.687-.079-10.03-.019-4.375-.077-8.752.033-13.128a2.72,2.72,0,0,0-.147-.771c-.086-.607.23-.82.787-.822q1.506,0,3.013,0H219.96a10.986,10.986,0,0,0,1.147-.027.625.625,0,0,1,.284.046.754.754,0,0,1,.186.219,1.971,1.971,0,0,1,.137.983c0,10.334.078,20.668-.038,31-.042,3.774-.02,7.549-.094,11.322A.774.774,0,0,1,221.509,612.023Z" fill="#999" stroke="#999" stroke-miterlimit="10" stroke-width="1"/>
  </g>
</svg>
