<svg xmlns="http://www.w3.org/2000/svg" width="65.638" height="59.603" viewBox="0 0 65.638 59.603">
  <g id="Group_9" data-name="Group 9" transform="translate(-155.575 -396.302)">
    <path id="Path_593" data-name="Path 593" d="M210.278,445.563c-8.151-8.034-18.418-10.7-29.389-11.444-1.537-.1-1.817-.543-1.8-1.953.076-6.249.093-12.5-.009-18.75-.025-1.555.489-1.826,1.9-1.883a53.6,53.6,0,0,0,16.53-3.355,35.023,35.023,0,0,0,12.807-8.205c1.255.773.752,2.039.756,3.078.045,12.027.028,24.055.028,36.083,0,1.528.012,3.057-.007,4.585C211.086,444.443,211.173,445.225,210.278,445.563Z" fill="#999"/>
    <path id="Path_594" data-name="Path 594" d="M160.373,416.335a6.157,6.157,0,0,1,5.92-5.644c3.451-.136,6.911-.017,10.366-.082,1.046-.02,1.179.459,1.176,1.323q-.032,10.867.008,21.735c.005,1.04-.3,1.39-1.356,1.37-3.255-.06-6.516.057-9.769-.049a6.277,6.277,0,0,1-6.353-5.879A97.062,97.062,0,0,0,160.373,416.335Z" fill="#999"/>
    <path id="Path_595" data-name="Path 595" d="M165.926,437.511c-.231-.778.075-1,.809-.785,3.077.419,6.171.077,9.254.206.882,5.641,1.788,11.279,2.626,16.927.191,1.292-.549,2.018-1.855,2.028q-4.491.035-8.983,0c-1.018-.008-1.838-.35-1.838-1.588.452-4.282.1-8.577.174-12.865A10.841,10.841,0,0,0,165.926,437.511Z" fill="#999"/>
    <path id="Path_596" data-name="Path 596" d="M213.031,447.644a3.648,3.648,0,0,1-.223-2.133q-.018-21.5-.013-42.994c0-.727-.056-1.454-.086-2.182a.517.517,0,0,1-.006-.8c.031-.262.077-.524.09-.787.055-1.128.481-2.023,1.74-1.979,1.236.044,1.653.956,1.66,2.076.013,1.862.007,3.725.008,5.588,0,1.6.076,3.2-.016,4.788-.152,2.621.192,4.684,2.441,6.759,3.968,3.661,3.2,10.424-1.126,13.722a3.035,3.035,0,0,0-1.318,2.815c.051,4.523.023,9.046.013,13.57,0,.517.154,1.07-.239,1.531-.519-1.072-.227-2.213-.238-3.317-.041-4.141-.017-8.283-.016-12.05-.091-.639-.459-.257-.223-.373.056-.028.208.173.208.292.019,4.52,0,9.039.018,13.558a5.269,5.269,0,0,0,.156,2.166c-.912,1.392-1.826,1.505-2.743,0a4.68,4.68,0,0,0,.177-2.165q.017-21.883.021-43.768c0-.694-.234-1.442.178-2.091-.554.021-.18.469-.18.68q-.022,22.782-.023,45.566C213.291,446.635,213.467,447.2,213.031,447.644Z" fill="#999"/>
    <path id="Path_597" data-name="Path 597" d="M212.7,399.538l.006.8c-.657.667-.4,1.511-.4,2.28q-.024,20.558.006,41.116a4.311,4.311,0,0,1-.78,2.78c-.425.56-.618.17-.85-.156a24.387,24.387,0,0,0,.22-3.763q-.011-19.419,0-38.838a43.718,43.718,0,0,0-.185-4.564c.031-.261-.031-.6.112-.763.26-.291.521.012.552.239a14.881,14.881,0,0,1,.127,1.98q.009,21.144.005,42.289V444.9l.385.016v-1.906q0-21.244.049-42.488C211.952,400.3,211.06,398.75,212.7,399.538Z" fill="#999"/>
    <path id="Path_598" data-name="Path 598" d="M156.753,428.639a1.387,1.387,0,0,1-1.013-1.326c-.043-3.129-.451-6.271.2-9.385l.2.283c0,2.446,0,4.891,0,7.024.223-2.016-.369-4.392.3-6.7,1.333-.475,1.877.123,1.889,1.4.021,2.4,0,4.794.009,7.191C158.339,428.235,157.84,428.722,156.753,428.639Z" fill="#999"/>
    <path id="Path_599" data-name="Path 599" d="M213.031,447.644c.033-7.456.081-14.913.1-22.369.017-8.648,0-17.3,0-26.1.611.6.354,1.184.355,1.686q.027,22.476.006,44.95c0,.709.217,1.481-.373,2.1A.174.174,0,0,1,213.031,447.644Z" fill="#999"/>
    <path id="Path_600" data-name="Path 600" d="M210.721,399.19c.873.386.442,1.161.443,1.735q.042,21.761-.006,43.52c0,.623.485,1.478-.469,1.91l-.411-.792a4.61,4.61,0,0,0,.428-2.521q-.006-19.776-.007-39.551a10.723,10.723,0,0,0-.381-3.518Z" fill="#999"/>
    <path id="Path_601" data-name="Path 601" d="M156.753,428.639a1.712,1.712,0,0,0,1.208-1.783c-.086-2.179-.075-4.365-.007-6.545.038-1.213-.42-1.725-1.615-1.586a.376.376,0,0,1-.128-.3c.008-.112.024-.168.047-.167.459-.475,1.064-.826,1.284-1.506,1.26-.39,1.087.515,1.088,1.226.007,3.179-.047,6.36.021,9.537C158.686,429.191,158.043,429.379,156.753,428.639Z" fill="#999"/>
    <path id="Path_602" data-name="Path 602" d="M215.861,447.9a2.891,2.891,0,0,1-.338-.9c-.02-5.238-.015-10.477.433-15.718v16.346A.2.2,0,0,1,215.861,447.9Z" fill="#999"/>
    <path id="Path_603" data-name="Path 603" d="M165.926,437.511a71.1,71.1,0,0,1,.013,16.788Z" fill="#999"/>
    <path id="Path_604" data-name="Path 604" d="M160.373,416.335c.816,2.664.243,5.391.322,8.086.046,1.553.428,3.175-.33,4.688C160.174,424.851,160.161,420.593,160.373,416.335Z" fill="#999"/>
    <path id="Path_605" data-name="Path 605" d="M175.989,436.932l-.259.915c-2.445-1.62-5.165-.329-7.727-.724-.452-.069-.921-.019-1.268-.4C169.822,436.683,172.918,436.273,175.989,436.932Z" fill="#999"/>
    <path id="Path_606" data-name="Path 606" d="M157.542,416.754c.806,1.449-.051,1.623-1.2,1.572a.263.263,0,0,1-.274-.247l-.123-.151A1.45,1.45,0,0,1,157.542,416.754Z" fill="#999"/>
    <ellipse id="Ellipse_1" data-name="Ellipse 1" cx="0.123" cy="10.028" rx="0.123" ry="10.028" transform="translate(215.562 396.302)" fill="#999"/>
    <path id="Path_607" data-name="Path 607" d="M156.064,418.079a.322.322,0,0,1,.274.247c0,.133,0,.266,0,.4v7.49l-.275,0Z" fill="#999"/>
  </g>
</svg>
