<svg xmlns="http://www.w3.org/2000/svg" width="37.893" height="66.506" viewBox="0 0 37.893 66.506">
  <g id="Group_16" data-name="Group 16" transform="translate(-639.704 -385.958)">
    <path id="Path_697" data-name="Path 697" d="M677.533,450.722a2.322,2.322,0,0,1-2.61,1.739q-16.188.008-32.377-.006a2.52,2.52,0,0,1-2.838-2.788q-.014-30.649.013-61.3a2.631,2.631,0,0,1,.265-.782c.373.433.246.958.246,1.448q.011,29.556.01,59.111a3.057,3.057,0,0,0,0,.788q0-29.555-.007-59.111a8.161,8.161,0,0,0-.136-2.57,1.832,1.832,0,0,1,1.672-1.24,47.786,47.786,0,0,0,6.64.135q12.137.041,24.275,0a4.905,4.905,0,0,0,2.324-.19c1.459-.005,2.5.5,2.587,2.144a2.911,2.911,0,0,0-.2,1.682q-.01,29.726,0,59.45A3.574,3.574,0,0,0,677.533,450.722Z" fill="#999"/>
    <path id="Path_698" data-name="Path 698" d="M675,441.237c-.552.7-1.329.416-2.01.417-9.491.017-18.983-.02-28.474.044-1.46.01-1.945-.3-1.938-1.864q.092-22.218.008-44.437c0-1.282.272-1.724,1.652-1.714,10.209.072,20.42.056,30.63.068.614.417.343,1.053.344,1.585q.023,22.219.008,44.439A2.256,2.256,0,0,1,675,441.237Z" fill="#fefefe"/>
    <path id="Path_699" data-name="Path 699" d="M658.61,445.552c2.013,0,4.027.018,6.041-.01.76-.011,1.212.136,1.2,1.051-.013.825-.284,1.141-1.128,1.135q-5.933-.043-11.866,0c-.774,0-1.164-.165-1.192-1.06-.033-1.068.525-1.137,1.339-1.123C654.87,445.573,656.74,445.552,658.61,445.552Z" fill="#fafafa"/>
    <line id="Line_1" data-name="Line 1" x1="31.869" y2="47.563" transform="translate(642.952 393.758)" fill="#999" stroke="#999" stroke-miterlimit="10" stroke-width="4"/>
    <g id="Group_14" data-name="Group 14">
      <path id="Path_700" data-name="Path 700" d="M649.661,417.9a3.8,3.8,0,0,1-.519-.292.953.953,0,0,1-.374-.76c-.012-.779-.016-1.559-.023-2.339,0-.07,0-.141,0-.238-.258,0-.5,0-.742,0a1.173,1.173,0,0,1-1.147-.67,1.155,1.155,0,0,1-.121-.495q-.012-3.635-.006-7.269a.572.572,0,0,1,.01-.078H656.8c0,.061.008.119.008.176,0,2.346-.008,4.691.006,7.036a1.214,1.214,0,0,1-.935,1.264,5.8,5.8,0,0,1-.836.037c-.076,0-.152,0-.252,0v.21c0,.655-.021,1.31.006,1.964a1.272,1.272,0,0,1-.922,1.453h-.429a1.267,1.267,0,0,1-.929-1.445c.026-.659.006-1.32.006-1.98v-.189h-1.511v.207q0,1.1,0,2.193a1.087,1.087,0,0,1-.358.9,3.578,3.578,0,0,1-.565.318Z" fill="gray"/>
      <path id="Path_701" data-name="Path 701" d="M650.09,417.9a3.578,3.578,0,0,0,.565-.318,1.087,1.087,0,0,0,.358-.9q0-1.1,0-2.193v-.207h1.511v.189c0,.66.02,1.321-.006,1.98a1.267,1.267,0,0,0,.929,1.445Z" fill="#fff"/>
      <path id="Path_702" data-name="Path 702" d="M653.978,401.152l.719-1.318c.026-.047.043-.11.083-.135.056-.036.16-.078.191-.053a.228.228,0,0,1,.068.2,4.035,4.035,0,0,1-.23.442l-.54,1a4.648,4.648,0,0,1,2.584,4.058H646.676a4.625,4.625,0,0,1,2.593-4.058l-.707-1.3c-.026-.047-.07-.1-.069-.143,0-.066.02-.164.064-.19s.138.01.2.043c.04.023.057.087.083.133l.723,1.326A5.56,5.56,0,0,1,653.978,401.152Zm-4.533,2.358a.433.433,0,0,0,.43-.41.44.44,0,0,0-.422-.438.427.427,0,0,0-.417.421A.421.421,0,0,0,649.445,403.51Zm4.646,0a.421.421,0,0,0,.41-.426.427.427,0,0,0-.415-.422.44.44,0,0,0-.424.437A.434.434,0,0,0,654.091,403.51Z" fill="gray"/>
      <path id="Path_703" data-name="Path 703" d="M657.265,409.008c0-.821-.016-1.643.006-2.463a1.072,1.072,0,0,1,1.08-1,1.1,1.1,0,0,1,1.137.966c.012.118.019.237.02.356q0,2.205,0,4.41a1.152,1.152,0,0,1-.623,1.118,1.1,1.1,0,0,1-1.615-.9c-.031-.826-.007-1.654-.007-2.481Z" fill="gray"/>
      <path id="Path_704" data-name="Path 704" d="M646.272,409.025c0,.827.016,1.655-.006,2.481a1.071,1.071,0,0,1-1.077,1,1.108,1.108,0,0,1-1.139-.965,3.589,3.589,0,0,1-.02-.374c0-1.464,0-2.928,0-4.392a1.154,1.154,0,0,1,.623-1.118,1.1,1.1,0,0,1,1.616.9c.032.82.007,1.642.007,2.463Z" fill="gray"/>
      <path id="Path_705" data-name="Path 705" d="M649.445,403.51a.421.421,0,0,1-.409-.427.427.427,0,0,1,.417-.421.44.44,0,0,1,.422.438A.433.433,0,0,1,649.445,403.51Z" fill="#fff"/>
      <path id="Path_706" data-name="Path 706" d="M654.091,403.51a.434.434,0,0,1-.429-.411.44.44,0,0,1,.424-.437.427.427,0,0,1,.415.422A.421.421,0,0,1,654.091,403.51Z" fill="#fff"/>
    </g>
    <g id="Group_15" data-name="Group 15">
      <path id="Path_707" data-name="Path 707" d="M671.457,425.311c-.1.067-.2.13-.295.2a3.9,3.9,0,0,0-1.14,1.188,3.358,3.358,0,0,0-.448,1.256,4.086,4.086,0,0,0,.123,1.819,3.629,3.629,0,0,0,1.038,1.62,4.022,4.022,0,0,0,1.161.765l.028.014c-.018.054-.037.106-.055.158a9.75,9.75,0,0,1-1.473,2.723,8.359,8.359,0,0,1-.768.914,3.011,3.011,0,0,1-.84.61,2.043,2.043,0,0,1-1.213.17,5.129,5.129,0,0,1-1.109-.333,4.319,4.319,0,0,0-1.128-.3,3.508,3.508,0,0,0-1.186.082,7.05,7.05,0,0,0-.936.314,4.5,4.5,0,0,1-.933.26,1.8,1.8,0,0,1-1.138-.193,3.632,3.632,0,0,1-1.012-.824,10.9,10.9,0,0,1-2.471-4.556,9.732,9.732,0,0,1-.271-1.425,8.148,8.148,0,0,1-.038-1.465,5.621,5.621,0,0,1,.59-2.225,4.541,4.541,0,0,1,1.353-1.614,4.254,4.254,0,0,1,1.9-.8,3.616,3.616,0,0,1,.742-.046,3.47,3.47,0,0,1,.815.152c.3.094.6.2.9.3s.6.207.9.283a.907.907,0,0,0,.521-.046c.444-.149.886-.3,1.33-.452a5.356,5.356,0,0,1,1.3-.283,3.611,3.611,0,0,1,.72.028,5.248,5.248,0,0,1,1.052.234,3.869,3.869,0,0,1,1.954,1.442Z" fill="gray"/>
      <path id="Path_708" data-name="Path 708" d="M668.26,419.475c.005.069.012.135.014.2a3.565,3.565,0,0,1-.732,2.3,4.508,4.508,0,0,1-1.122,1.1,2.968,2.968,0,0,1-1.046.453,2.647,2.647,0,0,1-.682.049l-.041-.005a2.575,2.575,0,0,1-.006-.614,3.866,3.866,0,0,1,.977-2.146,3.986,3.986,0,0,1,1.578-1.085,3.354,3.354,0,0,1,1-.242Z" fill="gray"/>
    </g>
  </g>
</svg>
