<svg xmlns="http://www.w3.org/2000/svg" width="323.665" height="222.208" viewBox="0 0 323.665 222.208">
  <g id="Group_1" data-name="Group 1" transform="translate(-388.335 -39.161)">
    <rect id="Rectangle_1" data-name="Rectangle 1" width="168.884" height="210.22" transform="translate(388.335 200.91) rotate(-73.286)" fill="#f1f1f1"/>
    <path id="Path_7" data-name="Path 7" d="M463.176,152.662l15.516-4.861a56.871,56.871,0,0,0-5.8-18.5l-15.516,4.861A34.885,34.885,0,0,1,463.176,152.662Z" fill="#f71272"/>
    <rect id="Rectangle_2" data-name="Rectangle 2" width="218.093" height="88.969" transform="translate(493.907 40.475)" fill="#3f3d56"/>
    <path id="Path_8" data-name="Path 8" d="M525.251,73.6h-16.26a56.9,56.9,0,0,1,0-19.387h16.26A34.9,34.9,0,0,0,525.251,73.6Z" fill="#ff6584"/>
    <path id="Path_9" data-name="Path 9" d="M539.328,81.855h16.26a56.852,56.852,0,0,0,0-19.387h-16.26A34.881,34.881,0,0,1,539.328,81.855Z" fill="#f71272"/>
    <path id="Path_10" data-name="Path 10" d="M575.481,53.413a145.97,145.97,0,0,1,2.258,40.89q-.462,5.338-1.32,10.632c-.262,1.6-.559,3.2-.864,4.8-.175.915-.543,2.053.032,2.914,1.121,1.677,4.96,1.24,6.651,1.294,3.52.114,7.044.133,10.565.195l10.591.185,5.1.089a38.149,38.149,0,0,0,5.364.077c2.269-.292,1.716-2.668,1.682-4.434q-.1-5.233-.279-10.467-.7-20.736-2.585-41.411a32.778,32.778,0,0,0-.534-5.562c-.191-.688-.382-.886-1.128-1.01a33.975,33.975,0,0,0-5.478.027l-5.785.04-23.525.164a.591.591,0,0,0,0,1.181l19.283-.134,8.485-.059,4.627-.032c.952-.007,1.841-.3,2.437.752.378.662.223,2.318.3,3.088q1.728,18.535,2.507,37.143.2,4.65.33,9.3.055,1.938.1,3.877.028,1.163.052,2.326c.016.8.347,2.367.057,3.1-.62,1.567-3.38.893-4.73.869l-4.708-.082L595.549,113l-9.415-.164c-1.557-.028-3.115-.039-4.671-.106-.516-.022-1.033-.047-1.548-.083-1.535-.11-3.187.253-3.369-1.868-.113-1.309.6-3.113.827-4.423q.378-2.217.688-4.446.579-4.164.922-8.356A147.219,147.219,0,0,0,576.62,53.1c-.148-.745-1.286-.43-1.139.314Z" fill="#f1f1f1"/>
    <path id="Path_11" data-name="Path 11" d="M653.034,53.413a145.967,145.967,0,0,1,2.258,40.89q-.462,5.338-1.321,10.632c-.261,1.6-.558,3.2-.863,4.8-.175.915-.543,2.053.032,2.914,1.121,1.677,4.96,1.24,6.651,1.294,3.52.114,7.044.133,10.565.195l10.591.185,5.1.089a38.147,38.147,0,0,0,5.364.077c2.269-.292,1.716-2.668,1.682-4.434q-.1-5.233-.279-10.467-.7-20.736-2.585-41.411a32.778,32.778,0,0,0-.534-5.562c-.191-.688-.382-.886-1.128-1.01a33.976,33.976,0,0,0-5.478.027l-5.785.04-23.525.164a.591.591,0,0,0,0,1.181l19.283-.134,8.484-.059,4.628-.032c.952-.007,1.841-.3,2.437.752.378.662.223,2.318.295,3.088q1.728,18.535,2.507,37.143.2,4.65.33,9.3.056,1.938.1,3.877.029,1.163.052,2.326c.016.8.347,2.367.057,3.1-.62,1.567-3.38.893-4.73.869l-4.708-.082L673.1,113l-9.415-.164c-1.557-.028-3.115-.039-4.671-.106-.516-.022-1.033-.047-1.548-.083-1.535-.11-3.187.253-3.369-1.868-.113-1.309.6-3.113.827-4.423q.378-2.217.688-4.446.578-4.164.922-8.356A147.219,147.219,0,0,0,654.173,53.1c-.148-.745-1.286-.43-1.139.314Z" fill="#f1f1f1"/>
    <path id="Path_12" data-name="Path 12" d="M580.911,56.453h7.812a.591.591,0,0,0,0-1.181h-7.812a.591.591,0,0,0,0,1.181Z" fill="#f1f1f1"/>
    <path id="Path_13" data-name="Path 13" d="M580.911,59.117l7.363-.278c.757-.029.761-1.21,0-1.181l-7.363.278C580.153,57.965,580.149,59.146,580.911,59.117Z" fill="#f1f1f1"/>
    <path id="Path_14" data-name="Path 14" d="M580.911,61.363h7.142a.591.591,0,0,0,0-1.181h-7.142a.591.591,0,0,0,0,1.181Z" fill="#f1f1f1"/>
    <path id="Path_15" data-name="Path 15" d="M604.578,55.9c-1.6-.836-3.058.539-3.284,2.111a3.518,3.518,0,0,0,.356,2.471,3.091,3.091,0,0,0,2.26.995,3.317,3.317,0,0,0,3.521-2.317,2.894,2.894,0,0,0-1.8-3.429c-.72-.25-1.029.891-.314,1.139a1.657,1.657,0,0,1,1.01,1.714,1.9,1.9,0,0,1-1.578,1.656c-.975.224-2.117-.017-2.306-1.116-.141-.823.306-2.847,1.539-2.2.673.351,1.271-.668.6-1.02Z" fill="#f1f1f1"/>
    <path id="Path_16" data-name="Path 16" d="M658.464,56.453h7.811a.591.591,0,0,0,0-1.181h-7.811a.591.591,0,0,0,0,1.181Z" fill="#f1f1f1"/>
    <path id="Path_17" data-name="Path 17" d="M658.464,59.117l7.362-.278c.758-.029.762-1.21,0-1.181l-7.362.278C657.706,57.965,657.7,59.146,658.464,59.117Z" fill="#f1f1f1"/>
    <path id="Path_18" data-name="Path 18" d="M658.464,61.363h7.142a.591.591,0,0,0,0-1.181h-7.142a.591.591,0,0,0,0,1.181Z" fill="#f1f1f1"/>
    <path id="Path_19" data-name="Path 19" d="M682.131,55.9c-1.6-.836-3.058.539-3.284,2.111a3.519,3.519,0,0,0,.356,2.471,3.091,3.091,0,0,0,2.26.995,3.317,3.317,0,0,0,3.521-2.317,2.894,2.894,0,0,0-1.8-3.429c-.72-.25-1.029.891-.314,1.139a1.657,1.657,0,0,1,1.01,1.714,1.9,1.9,0,0,1-1.578,1.656c-.975.224-2.117-.017-2.306-1.116-.141-.823.306-2.847,1.539-2.2.673.351,1.271-.668.6-1.02Z" fill="#f1f1f1"/>
    <path id="Path_20" data-name="Path 20" d="M582.473,67.839q12.888.137,25.75-.795l-.569-.748c-1.4,3.556-1.365,7.305-1.179,11.067a13.989,13.989,0,0,1,.151,3.147c-.241,1.174-1.295.894-2.343.928q-3.462.111-6.928.161-3.271.045-6.544.036-1.54,0-3.08-.022c-1.206-.013-2.576.337-2.887-1.06a14.861,14.861,0,0,1,0-2.99l0-3.365,0-6.729a.591.591,0,0,0-1.181,0l-.005,8.224,0,3.739a6.649,6.649,0,0,0,.123,2.345c.638,1.621,3.394,1.013,4.715,1.025q4.043.038,8.084-.012t8.083-.184c1.16-.038,2.766.226,3.118-1.206a12.493,12.493,0,0,0-.093-3.335c-.06-1.169-.125-2.337-.141-3.507a20.536,20.536,0,0,1,1.241-7.948.592.592,0,0,0-.57-.747q-12.855.93-25.75.795a.591.591,0,0,0,0,1.181Z" fill="#f1f1f1"/>
    <path id="Path_21" data-name="Path 21" d="M584.922,68.481a86.674,86.674,0,0,1,10.733,4.635c3.112,1.608,7.187,3.366,9.329,6.24.449.6,1.475.015,1.02-.6-2.188-2.935-5.953-4.663-9.116-6.331a88.838,88.838,0,0,0-11.652-5.087c-.717-.255-1.026.886-.314,1.139Z" fill="#f1f1f1"/>
    <path id="Path_22" data-name="Path 22" d="M608.022,66.378c-3.9,1.669-7.209,4.884-10.7,7.267q-5.664,3.869-11.663,7.2c-.664.37-.069,1.391.6,1.019q5.988-3.342,11.663-7.2c3.487-2.382,6.795-5.6,10.7-7.266.7-.3.1-1.316-.6-1.02Z" fill="#f1f1f1"/>
    <path id="Path_23" data-name="Path 23" d="M660.026,67.839q12.888.137,25.75-.795l-.569-.748c-1.4,3.556-1.365,7.305-1.179,11.067a14.053,14.053,0,0,1,.151,3.147c-.241,1.174-1.3.894-2.343.928q-3.464.111-6.928.161-3.272.045-6.544.036-1.541,0-3.08-.022c-1.206-.013-2.576.337-2.888-1.06a15.015,15.015,0,0,1,0-2.99l0-3.365,0-6.729a.591.591,0,0,0-1.181,0l-.005,8.224,0,3.739a6.627,6.627,0,0,0,.123,2.345c.637,1.621,3.393,1.013,4.715,1.025q4.041.038,8.084-.012t8.083-.184c1.16-.038,2.766.226,3.118-1.206a12.493,12.493,0,0,0-.093-3.335c-.061-1.169-.125-2.337-.141-3.507a20.554,20.554,0,0,1,1.24-7.948.591.591,0,0,0-.569-.747q-12.855.93-25.75.795a.591.591,0,0,0,0,1.181Z" fill="#f1f1f1"/>
    <path id="Path_24" data-name="Path 24" d="M662.475,68.481a86.734,86.734,0,0,1,10.733,4.635c3.112,1.608,7.187,3.366,9.329,6.24.449.6,1.474.015,1.02-.6-2.188-2.935-5.953-4.663-9.116-6.331a88.838,88.838,0,0,0-11.652-5.087c-.717-.255-1.026.886-.314,1.139Z" fill="#f1f1f1"/>
    <path id="Path_25" data-name="Path 25" d="M685.575,66.378c-3.9,1.669-7.209,4.884-10.7,7.267q-5.662,3.869-11.662,7.2c-.664.37-.069,1.391.6,1.019q5.986-3.342,11.663-7.2c3.487-2.382,6.8-5.6,10.7-7.266.7-.3.1-1.316-.6-1.02Z" fill="#f1f1f1"/>
    <path id="Path_26" data-name="Path 26" d="M660.026,91.46q12.888.135,25.75-.8l-.569-.748c-1.4,3.557-1.365,7.305-1.179,11.067a14.059,14.059,0,0,1,.151,3.148c-.241,1.174-1.3.893-2.343.927q-3.464.111-6.928.161-3.272.046-6.544.036-1.541,0-3.08-.022c-1.206-.013-2.576.337-2.888-1.059a15.025,15.025,0,0,1,0-2.991l0-3.365,0-6.729a.591.591,0,0,0-1.181,0l-.005,8.225,0,3.738a6.625,6.625,0,0,0,.123,2.345c.637,1.621,3.393,1.013,4.715,1.025q4.041.038,8.084-.012t8.083-.184c1.16-.038,2.766.226,3.118-1.2a12.5,12.5,0,0,0-.093-3.336c-.061-1.168-.125-2.337-.141-3.507a20.554,20.554,0,0,1,1.24-7.948.591.591,0,0,0-.569-.747q-12.855.93-25.75.8a.591.591,0,0,0,0,1.181Z" fill="#f1f1f1"/>
    <path id="Path_27" data-name="Path 27" d="M662.475,92.1a86.734,86.734,0,0,1,10.733,4.635c3.112,1.609,7.187,3.366,9.329,6.241.449.6,1.474.014,1.02-.6-2.188-2.936-5.953-4.664-9.116-6.332a88.838,88.838,0,0,0-11.652-5.087C662.072,90.707,661.763,91.848,662.475,92.1Z" fill="#f1f1f1"/>
    <path id="Path_28" data-name="Path 28" d="M685.575,90c-3.9,1.669-7.209,4.884-10.7,7.267q-5.662,3.869-11.662,7.2c-.664.37-.069,1.391.6,1.02q5.986-3.344,11.663-7.2c3.487-2.382,6.8-5.6,10.7-7.267C686.868,90.72,686.267,89.7,685.575,90Z" fill="#f1f1f1"/>
    <path id="Path_29" data-name="Path 29" d="M584.706,90.569q11.941.182,23.882-.1a.591.591,0,0,0,0-1.181q-11.94.277-23.882.1a.591.591,0,0,0,0,1.181Z" fill="#f1f1f1"/>
    <path id="Path_30" data-name="Path 30" d="M585.375,95.924q12.276.195,24.552-.106a.591.591,0,0,0,0-1.181q-12.274.3-24.552.106A.591.591,0,0,0,585.375,95.924Z" fill="#f1f1f1"/>
    <path id="Path_31" data-name="Path 31" d="M584.48,101.705l23.212-1.078c.757-.035.761-1.216,0-1.181l-23.212,1.078C583.723,100.559,583.718,101.741,584.48,101.705Z" fill="#f1f1f1"/>
    <path id="Path_32" data-name="Path 32" d="M620.638,85.02h22.095a.591.591,0,0,0,0-1.181H620.638a.591.591,0,0,0,0,1.181Z" fill="#f1f1f1"/>
    <path id="Path_33" data-name="Path 33" d="M641.765,78.268l3.452,3.151A9.977,9.977,0,0,1,646.943,83c.507.974-.038.752-.907,1.089a19.451,19.451,0,0,0-5.812,3.609c-.571.5.267,1.336.835.835a18.062,18.062,0,0,1,5.291-3.305c.7-.276,2.018-.437,2.349-1.266.405-1.016-.885-1.765-1.5-2.323l-4.6-4.2c-.561-.511-1.4.321-.835.835Z" fill="#f1f1f1"/>
    <path id="Path_34" data-name="Path 34" d="M588.143,124.371H604.4a56.852,56.852,0,0,0,0-19.387h-16.26A34.881,34.881,0,0,1,588.143,124.371Z" fill="#f71272"/>
    <path id="Path_35" data-name="Path 35" d="M520.432,109.805h16.26a56.852,56.852,0,0,0,0-19.387h-16.26A34.881,34.881,0,0,1,520.432,109.805Z" fill="#f71272"/>
    <path id="Path_36" data-name="Path 36" d="M623.18,67.289h16.26a56.9,56.9,0,0,0,0-19.387H623.18A34.88,34.88,0,0,1,623.18,67.289Z" fill="#f71272"/>
  </g>
</svg>
