<svg xmlns="http://www.w3.org/2000/svg" width="86.508" height="92" viewBox="0 0 86.508 92">
  <g id="Group_6" data-name="Group 6" transform="translate(-842.492 -526)">
    <g id="Group_5" data-name="Group 5">
      <path id="Path_67" data-name="Path 67" d="M861.758,546.558a1.536,1.536,0,0,1,.866.057c1.641.343,3.311.483,4.968.722,2.222.32,4.124,1.274,4.9,3.5.319.919,1.049,1.414,1.449,2.2a6.753,6.753,0,0,1,.706,4.345,10.312,10.312,0,0,1-.647,2.351c-.131.306-.054.483.248.582a1.069,1.069,0,0,1,.7,1.093,4.467,4.467,0,0,1-1.121,3.345c-.05.059-.1.157-.16.162-.935.085-.966.939-1.284,1.528a9.16,9.16,0,0,1-1.666,2.436,1.173,1.173,0,0,0-.366.942c.021,1.035.007,2.071.018,3.106a.883.883,0,0,1-.246.687c-1.288,1.319-2.562,2.653-3.851,3.971-.449.46-.471.611-.022,1.047.32.312.637.629.983.911.2.167.206.306.058.487a.628.628,0,0,1-.13.117,2.048,2.048,0,0,0-.8,2.385c.331,1.675.56,3.37.833,5.056.043.262-.015.653.275.709s.354-.331.5-.556a25.5,25.5,0,0,0,1.96-3.83,22.151,22.151,0,0,0,1.876-9.544c-.032-.719.027-.745.721-.515,2.213.733,4.453,1.4,6.634,2.215a31.739,31.739,0,0,1,5.224,2.254,4.219,4.219,0,0,1,1.7,2.36,37.548,37.548,0,0,1,1.53,6.037q.4,2.151.6,4.336c.046.515-.089.594-.543.594-5.079-.01-10.158,0-15.237,0q-14.622,0-29.244.011c-.571,0-.755-.127-.665-.722.292-1.926.539-3.858.922-5.771a41.473,41.473,0,0,1,1.194-4.433,5.211,5.211,0,0,1,3.389-3.26q4.593-1.874,9.337-3.317l.056-.017c1.1-.341,1.135-.339,1.094.781a20.712,20.712,0,0,0,1.372,7.645,27.124,27.124,0,0,0,2.521,5.293c.112.181.217.428.461.368s.151-.326.18-.508c.313-2,.611-4.005.942-6a1.044,1.044,0,0,0-.4-1.117c-.79-.649-.769-.674-.083-1.412.079-.085.14-.188.22-.273.771-.813.782-.822.02-1.616q-1.677-1.749-3.383-3.469a1.311,1.311,0,0,1-.421-1.034c.032-1.035,0-2.071.013-3.106a1.264,1.264,0,0,0-.359-.947,9.1,9.1,0,0,1-1.965-3.2.6.6,0,0,0-.286-.409,3.772,3.772,0,0,1-1.73-4.133.771.771,0,0,1,.433-.574c.42-.164.457-.459.368-.846a10.475,10.475,0,0,1,.008-5.042,17.375,17.375,0,0,1,1.085-2.88,11.083,11.083,0,0,1,.8-1.682,4.7,4.7,0,0,1,1.956-1.506c.164-.08.44-.066.326-.422-.08-.255.16-.313.372-.314.371,0,.743.019,1.112,0,.32-.02.5-.144.221-.474C862.114,547.047,861.962,546.827,861.758,546.558Z" fill="gray"/>
      <path id="Path_68" data-name="Path 68" d="M863.7,591.387a.7.7,0,0,1,.057.664A.459.459,0,0,1,863.7,591.387Z" fill="gray"/>
      <path id="Path_69" data-name="Path 69" d="M853.355,578.064c.132-.049.253-.092.34.074A.254.254,0,0,1,853.355,578.064Z" fill="gray"/>
    </g>
    <path id="Path_70" data-name="Path 70" d="M920.762,565.435c-3.938,0-7.238,2.214-8.047,5.162H903.58c-.418-10.252-5.415-19.872-14.218-27.359l6.457-5.146a9.755,9.755,0,0,0,4.447,1.039,9.341,9.341,0,0,0,5.825-1.923,5.673,5.673,0,0,0,0-9.285,9.785,9.785,0,0,0-11.651,0,5.938,5.938,0,0,0-2.413,4.642,5.6,5.6,0,0,0,1.3,3.543l-7.681,6.122a1.212,1.212,0,0,0,0,1.984c9.314,7.423,14.444,17.291,14.444,27.785s-5.13,20.362-14.444,27.785a1.42,1.42,0,0,0-.393.478,1.156,1.156,0,0,0-.123.512h0v.007h0a1.19,1.19,0,0,0,.263.732,1.489,1.489,0,0,0,.253.255l7.682,6.121a5.6,5.6,0,0,0-1.3,3.544,5.938,5.938,0,0,0,2.413,4.642,9.785,9.785,0,0,0,11.651,0,5.674,5.674,0,0,0,0-9.285,9.346,9.346,0,0,0-5.826-1.923,9.763,9.763,0,0,0-4.446,1.038l-6.46-5.146c8.8-7.487,13.8-17.106,14.22-27.358h9.135c.809,2.948,4.108,5.162,8.047,5.162,4.542,0,8.238-2.945,8.238-6.565S925.3,565.435,920.762,565.435ZM896.93,529.907h0a5.6,5.6,0,0,1,6.673,0,3.248,3.248,0,0,1,0,5.317,5.6,5.6,0,0,1-6.666.005l-.007-.006-.007-.005a3.248,3.248,0,0,1,.007-5.311Zm6.672,78.869h0a3.247,3.247,0,0,1,0,5.317,5.6,5.6,0,0,1-6.672,0,3.248,3.248,0,0,1,0-5.317,5.6,5.6,0,0,1,6.672,0Zm17.16-33.016c-2.6,0-4.718-1.687-4.718-3.76s2.117-3.76,4.718-3.76,4.718,1.687,4.718,3.76S923.364,575.76,920.762,575.76Z" fill="gray"/>
  </g>
</svg>
