<?xml version="1.0" encoding="iso-8859-1"?>
<!-- Generator: Adobe Illustrator 18.0.0, SVG Export Plug-In . SVG Version: 6.00 Build 0)  -->
<!DOCTYPE svg PUBLIC "-//W3C//DTD SVG 1.1//EN" "http://www.w3.org/Graphics/SVG/1.1/DTD/svg11.dtd">
<svg version="1.1" id="Capa_1" xmlns="http://www.w3.org/2000/svg" xmlns:xlink="http://www.w3.org/1999/xlink" x="0px" y="0px"
	 viewBox="0 0 295.533 295.533" style="enable-background:new 0 0 295.533 295.533;     fill: white;" xml:space="preserve">
<g>
	<path d="M245.269,250.786h-4.722c-13.666-20.615-16.579-37.717-16.212-59.35h25.479c4.102,0,7.442-3.294,7.499-7.395
		c0.006-0.371,0.52-37.638,0.52-81.789c0-52.776-28.011-77.863-51.509-89.616C181.345,0.144,156.644,0,155.605,0
		c-1.029,0-2.049,0.212-2.992,0.623l-48.311,21.023c0.006,0.002,0.011,0.004,0.017,0.006c-1.48,0.583-2.759,1.621-3.619,2.998
		l-70.795,113.3c-1.851,2.961-1.412,6.808,1.056,9.277l28.319,28.329c2.53,2.53,6.493,2.92,9.466,0.937l40.63-27.098
		c1.452-0.038,2.876-0.11,4.268-0.22c-0.326,10.567-2.113,20.161-11.887,29.938c-31.778,31.783-32.02,62.897-30.923,73.756
		c-7.276,3.449-12.332,10.845-12.332,19.418v1.747c0,11.855,9.645,21.5,21.5,21.5h165.268c11.856,0,21.5-9.645,21.5-21.5v-1.747
		C266.769,260.431,257.124,250.786,245.269,250.786z M157.057,15.047c5.334,0.249,24.371,1.785,42.999,11.228
		c28.385,14.389,42.776,39.951,42.776,75.978c0,32.447-0.278,61.166-0.427,74.184h-17.435c0.218-3.621,0.472-7.378,0.738-11.314
		c0.996-14.678,2.125-31.314,2.125-51.528c0-29.105-9.219-52-27.399-68.048c-17.414-15.371-39.879-21.592-58.525-23.908
		L157.057,15.047z M112.363,189.718c14.776-14.78,16.2-29.841,16.338-43.479c8.324-2.799,15.037-7.436,20.069-13.881
		c15.178-19.439,8.341-47.705,8.043-48.899c-1.005-4.019-5.08-6.457-9.096-5.457c-4.019,1.005-6.461,5.077-5.457,9.096
		c0.056,0.221,5.239,22.514-5.314,36.03c-5.852,7.495-15.908,11.296-29.888,11.296c-1.481,0-2.929,0.439-4.161,1.261L65.54,160.601
		L45.786,140.84l3.545-5.673c0.361,0.053,0.726,0.09,1.093,0.09c1.97,0,3.91-0.801,5.3-2.2c1.4-1.4,2.2-3.33,2.2-5.3
		c0-1.506-0.471-2.992-1.316-4.236l54.837-87.761c12.093-0.847,53.189-1.808,79.064,21.031
		c14.813,13.077,22.325,32.188,22.325,56.803c0,19.705-1.11,36.072-2.091,50.513c-2.247,33.111-3.824,56.36,10.536,83.619h-103.21
		c-0.259-10.525,2.479-33.63,26.847-58.009c2.928-2.929,2.927-7.678-0.003-10.606c-2.929-2.93-7.678-2.929-10.606,0.003
		c-27.688,27.7-31.429,54.895-31.205,68.612h-17.58C85.292,237.23,88.048,214.037,112.363,189.718z M251.769,274.033
		c0,3.584-2.916,6.5-6.5,6.5H80.001c-3.584,0-6.5-2.916-6.5-6.5v-1.747c0-3.584,2.916-6.5,6.5-6.5h165.268
		c3.584,0,6.5,2.916,6.5,6.5V274.033z"/>
	<path d="M109.423,79.271c-3.265-2.551-7.976-1.977-10.528,1.288l-3.271,4.184c-2.552,3.263-1.975,7.976,1.288,10.528
		c1.372,1.072,2.999,1.592,4.615,1.592c2.228,0,4.434-0.988,5.913-2.88l3.271-4.184C113.263,86.536,112.686,81.822,109.423,79.271z"
		/>
</g>
<g>
</g>
<g>
</g>
<g>
</g>
<g>
</g>
<g>
</g>
<g>
</g>
<g>
</g>
<g>
</g>
<g>
</g>
<g>
</g>
<g>
</g>
<g>
</g>
<g>
</g>
<g>
</g>
<g>
</g>
</svg>
