<svg xmlns="http://www.w3.org/2000/svg" width="101.001" height="72.748" viewBox="0 0 101.001 72.748">
  <g id="Group_10" data-name="Group 10" transform="translate(-363.703 -388.368)">
    <path id="Path_608" data-name="Path 608" d="M406.7,388.369q19.8,0,39.594,0c2.933,0,3.45.514,3.452,3.459.006,10.338-.037,20.677.042,31.015.012,1.663-.44,2.1-2.084,2.068-4.692-.082-4.693,0-4.693-4.7,0-4.106.016-8.212-.006-12.318-.014-2.6-.7-3.295-3.224-3.3q-33-.009-65.991,0c-2.607,0-3.218.605-3.222,3.256q-.024,14.848,0,29.7c0,2.852.589,3.414,3.543,3.415q26.067.008,52.133.022c.727,0,1.92-.471,2.084.574a8.673,8.673,0,0,1-.158,4.526c-.2.5-.936.264-1.431.264q-29.916.012-59.832,0c-2.425,0-3.184-.767-3.187-3.156q-.027-25.846,0-51.693c0-2.5.725-3.126,3.389-3.127Q386.9,388.363,406.7,388.369Z" fill="#999"/>
    <path id="Path_609" data-name="Path 609" d="M442.317,445.164c-4.547.216-7.544-2.741-7.436-7.179.01-.432-.106-.938.355-1.183.491-.262.8.173,1.11.46a10.5,10.5,0,0,1,1.241,1.245c1.28,1.68,2.4,1.384,3.749-.022,2.446-2.542,2.49-2.472.074-4.966-.478-.5-1.482-.91-1.154-1.681.395-.927,1.428-.435,2.174-.359,4.137.425,6.629,3.243,6.221,7.24-.137,1.34.039,2.809,1.247,2.718a2.7,2.7,0,0,0,2.319-2.954,9.755,9.755,0,0,1-.036-1.75,5.952,5.952,0,0,1,6.605-5.376c.886.1,1.269.39.63,1.23-.132.173-.307.314-.455.477-2.272,2.5-2.1,3.535.755,5.509,1.3.9,1.8-.272,2.573-.82.672-.474,1.1-1.811,2-1.292.709.406.321,1.626.176,2.462a5.731,5.731,0,0,1-6.252,4.948c-.851-.027-1.645-.289-2.459.444-1.234,1.111-1.7,1.883-.167,3.244,2.066,1.84,3.89,3.958,5.773,6,1.6,1.738,1.535,2.708-.184,4.417a3.044,3.044,0,0,1-4.407-.1c-1.933-1.9-3.8-3.871-5.767-5.74-.508-.484-.941-1.743-1.833-1.051s-2.03,1.271-1.889,2.924c.375,4.39-2,7-6.131,7.055-.482.006-1.119.237-1.366-.36s.364-.888.691-1.248a16.2,16.2,0,0,1,1.256-1.23,1.452,1.452,0,0,0,.014-2.433,8.926,8.926,0,0,1-.928-.938c-1.24-1.638-2.4-1.6-3.694-.006-.461.565-.986,1.684-1.817,1.269-.906-.453-.381-1.582-.257-2.4a5.531,5.531,0,0,1,5.874-5.064c.659-.006,1.422.236,1.953-.019.964-.464,2.237-1.262,2.1-2.27C444.8,445.031,443.439,444.824,442.317,445.164Z" fill="#999"/>
    <path id="Path_610" data-name="Path 610" d="M422.8,423.454c-2.649-1.182-4.9-2.18-7.148-3.2a3.2,3.2,0,0,1-1.3-.763,2.28,2.28,0,0,1-.1-2.48c.473-.739,1.181.072,1.715.3,3.426,1.471,6.826,3,10.236,4.513.8.356,1.6.616,1.553,1.807-.046,1.1-.83,1.262-1.543,1.581-3.4,1.522-6.8,3.064-10.231,4.526-.551.235-1.435,1.233-1.808.162-.3-.865-.626-2.195.828-2.816,2.22-.946,4.41-1.96,6.61-2.953C421.868,424.02,422.1,423.857,422.8,423.454Z" fill="#999"/>
    <path id="Path_611" data-name="Path 611" d="M390.675,423.566c2.593,1.169,4.723,2.13,6.854,3.089.4.18.818.327,1.206.53,1.233.645.94,1.91.648,2.718-.393,1.088-1.242.078-1.787-.154-3.434-1.463-6.835-3.005-10.246-4.522-.793-.352-1.623-.57-1.589-1.779.031-1.109.826-1.282,1.528-1.6,3.337-1.5,6.673-3.009,10.043-4.435.63-.267,1.6-1.289,2.009-.34.441,1.013.57,2.427-1.116,3.054-1.917.714-3.756,1.636-5.625,2.478C392.088,422.837,391.594,423.106,390.675,423.566Z" fill="#999"/>
    <path id="Path_612" data-name="Path 612" d="M410.105,411.478c.83.371,2.109.265,1.41,1.951-2.526,6.093-4.966,12.222-7.4,18.351-.375.944-.783,1.208-1.8.793-.991-.407-.91-.908-.589-1.7,2.479-6.113,4.93-12.236,7.4-18.351C409.309,412.082,409.376,411.483,410.105,411.478Z" fill="#999"/>
    <path id="Path_613" data-name="Path 613" d="M388.66,399.879c-4.985,0-9.969-.025-14.953.014-1.807.014-2.984-.5-3-2.568-.019-2.236.662-3.12,2.953-3.13q15.063-.064,30.125,0c2.118.009,3.01,1.027,2.976,2.967s-.9,2.7-3.147,2.712C398.628,399.891,393.644,399.879,388.66,399.879Z" fill="#fdfdfd"/>
    <path id="Path_614" data-name="Path 614" d="M425.372,399.884c-.733,0-1.466,0-2.2,0a2.373,2.373,0,0,1-2.643-2.555c-.093-1.717.56-2.9,2.354-3.1a27.268,27.268,0,0,1,3.514-.056c2.564.044,3.383.784,3.358,2.976-.024,2.116-.737,2.71-3.285,2.731C426.105,399.886,425.738,399.883,425.372,399.884Z" fill="#fafbfb"/>
    <path id="Path_615" data-name="Path 615" d="M438.131,399.882c-.66,0-1.32.017-1.979,0a2.312,2.312,0,0,1-2.467-2.488c-.1-1.689.425-2.97,2.264-3.14a27.613,27.613,0,0,1,4.61-.014c1.829.139,2.432,1.359,2.358,3.069-.072,1.681-.853,2.59-2.586,2.578C439.6,399.878,438.864,399.882,438.131,399.882Z" fill="#fbfbfb"/>
    <path id="Path_616" data-name="Path 616" d="M460.891,456.5l-.767.807c-.672.624-1.421.314-2.156.177-.761-.723-1.757-1.5-1.034-2.634a2.448,2.448,0,0,1,3.517-.892C461.241,454.7,461.649,455.5,460.891,456.5Z" fill="#fef7f3"/>
  </g>
</svg>
